<svg width="34" height="16" viewBox="0 0 34 16" fill="none" xmlns="http://www.w3.org/2000/svg">
<path d="M26.375 11H20.6387V10.0215L23.4805 6.92188C23.8906 6.46484 24.1816 6.08398 24.3535 5.7793C24.5293 5.4707 24.6172 5.16211 24.6172 4.85352C24.6172 4.44727 24.502 4.11914 24.2715 3.86914C24.0449 3.61914 23.7383 3.49414 23.3516 3.49414C22.8906 3.49414 22.5332 3.63477 22.2793 3.91602C22.0254 4.19727 21.8984 4.58203 21.8984 5.07031H20.4746C20.4746 4.55078 20.5918 4.08398 20.8262 3.66992C21.0645 3.25195 21.4023 2.92773 21.8398 2.69727C22.2812 2.4668 22.7891 2.35156 23.3633 2.35156C24.1914 2.35156 24.8438 2.56055 25.3203 2.97852C25.8008 3.39258 26.041 3.9668 26.041 4.70117C26.041 5.12695 25.9199 5.57422 25.6777 6.04297C25.4395 6.50781 25.0469 7.03711 24.5 7.63086L22.4141 9.86328H26.375V11ZM33.1367 3.25977L29.7266 11H28.2324L31.6367 3.61133H27.2246V2.46875H33.1367V3.25977Z" fill="#C4C4C4"/>
<path d="M12.75 1H1.41667C0.6375 1 0 1.6375 0 2.41667V10.9167C0 11.6958 0.6375 12.3333 1.41667 12.3333H11.3333L14.1667 15.1667V2.41667C14.1667 1.6375 13.5292 1 12.75 1ZM11.3333 9.5H2.83333V8.08333H11.3333V9.5ZM11.3333 7.375H2.83333V5.95833H11.3333V7.375ZM11.3333 5.25H2.83333V3.83333H11.3333V5.25Z" fill="#C4C4C4"/>
</svg>
